# xmcd
#
# Track frame offsets:
#	150
#	4919
#	52558
#	77082
#	118684
#	136374
#
# Disc length: 1981 seconds
#
# Revision: 1
# Processed by: cddbd v1.5PL3 Copyright (c) Steve Scherf et al.
# Submitted via: CDex 1.50Beta5
#
DISCID=4007bb06
DTITLE=サークル「凪」 - うたかたのユメ　第一号
DYEAR=2002
DGENRE=Soundtrack
TTITLE0=ご注意
TTITLE1=第壱夢 In The Summer Days
TTITLE2=第弐夢 A Night Of Rapture
TTITLE3=第参夢 A Mischiveous
TTITLE4=スプーン１杯のしあわせ
TTITLE5=おまけ
EXTD=
EXTT0=
EXTT1=
EXTT2=
EXTT3=
EXTT4=
EXTT5=
PLAYORDER=
